<svg viewBox="0, 0, 400,400" xmlns="http://www.w3.org/2000/svg">
  <path d="M75.501 1.483 C 70.198 4.979,70.323 4.073,70.318 38.867 L 70.313 70.313 61.060 70.313 C 46.002 70.313,36.379 74.928,29.345 85.526 C 23.791 93.894,23.437 95.979,23.437 120.398 L 23.438 142.114 20.117 143.616 C 11.629 147.453,4.312 155.736,1.571 164.610 C -0.821 172.355,-0.891 322.164,1.494 329.097 C 5.180 339.811,13.287 347.936,23.951 351.605 C 27.900 352.963,30.599 353.125,49.341 353.125 L 70.313 353.125 70.318 372.852 C 70.323 394.589,70.443 395.183,75.501 398.517 C 78.997 400.822,321.003 400.822,324.499 398.517 C 329.557 395.183,329.677 394.589,329.682 372.852 L 329.688 353.125 350.659 353.125 C 369.401 353.125,372.100 352.963,376.049 351.605 C 386.713 347.936,394.820 339.811,398.506 329.097 C 400.891 322.164,400.821 172.355,398.429 164.610 C 395.688 155.736,388.371 147.453,379.883 143.616 L 376.563 142.114 376.563 120.398 C 376.563 95.979,376.209 93.894,370.655 85.526 C 363.149 74.218,354.254 70.313,336.007 70.313 L 323.821 70.313 291.012 37.421 C 272.967 19.331,256.832 3.510,255.156 2.265 L 252.109 0.000 164.922 0.005 C 80.828 0.010,77.655 0.063,75.501 1.483 M235.943 54.883 C 235.950 97.971,231.716 93.738,274.805 93.745 L 306.250 93.750 306.250 117.188 L 306.250 140.625 200.000 140.625 L 93.750 140.625 93.750 82.031 L 93.750 23.438 164.844 23.438 L 235.938 23.438 235.943 54.883 M274.219 55.859 L 288.656 70.313 274.016 70.313 L 259.375 70.313 259.375 55.859 C 259.375 47.910,259.466 41.406,259.578 41.406 C 259.690 41.406,266.278 47.910,274.219 55.859 M70.313 117.188 L 70.313 140.625 58.533 140.625 L 46.753 140.625 47.009 121.680 C 47.357 95.956,48.560 94.057,64.648 93.830 L 70.313 93.750 70.313 117.188 M346.991 95.927 C 352.412 99.284,352.705 100.538,352.991 121.680 L 353.247 140.625 341.467 140.625 L 329.688 140.625 329.688 117.081 L 329.688 93.537 337.030 93.921 C 342.621 94.214,344.996 94.692,346.991 95.927 M370.313 166.157 C 376.628 170.092,376.172 163.805,376.172 246.875 C 376.172 338.996,379.456 329.136,348.633 329.553 L 329.688 329.810 329.688 294.592 L 329.688 259.375 337.695 259.370 C 344.223 259.366,346.116 259.093,347.936 257.892 C 355.076 253.186,355.076 242.127,347.936 237.420 C 344.438 235.114,55.562 235.114,52.064 237.420 C 44.924 242.127,44.924 253.186,52.064 257.892 C 53.884 259.093,55.777 259.366,62.305 259.370 L 70.313 259.375 70.313 294.592 L 70.313 329.810 51.367 329.553 C 30.159 329.266,28.992 328.990,25.532 323.438 L 23.828 320.703 23.828 246.875 L 23.828 173.047 25.542 170.313 C 27.452 167.265,29.707 165.637,33.203 164.785 C 34.492 164.471,110.254 164.267,201.563 164.333 L 367.578 164.453 370.313 166.157 M52.064 188.983 C 44.924 193.689,44.924 204.748,52.064 209.455 C 54.069 210.777,55.934 210.927,70.313 210.927 C 84.691 210.927,86.556 210.777,88.561 209.455 C 95.701 204.748,95.701 193.689,88.561 188.983 C 85.179 186.753,55.446 186.753,52.064 188.983 M306.250 317.969 L 306.250 376.563 200.000 376.563 L 93.750 376.563 93.750 317.969 L 93.750 259.375 200.000 259.375 L 306.250 259.375 306.250 317.969 M122.376 284.295 C 118.728 286.700,117.198 289.725,117.198 294.531 C 117.198 299.338,118.728 302.362,122.376 304.767 C 124.525 306.184,127.457 306.240,200.000 306.240 C 283.953 306.240,277.651 306.641,281.330 301.061 C 284.640 296.040,282.798 287.707,277.624 284.295 C 274.139 281.997,125.861 281.997,122.376 284.295 M122.376 331.170 C 118.728 333.575,117.198 336.600,117.198 341.406 C 117.198 346.213,118.728 349.237,122.376 351.642 C 124.525 353.059,127.457 353.115,200.000 353.115 C 283.953 353.115,277.651 353.516,281.330 347.936 C 284.640 342.915,282.798 334.582,277.624 331.170 C 274.139 328.872,125.861 328.872,122.376 331.170 " />
</svg>