<svg viewBox="0, 0, 400,400" xmlns="http://www.w3.org/2000/svg" >
  <path id="path0" d="M33.836 1.623 C 27.405 5.742,26.787 13.237,32.170 21.848 C 54.095 56.925,99.162 84.001,143.359 88.649 C 145.938 88.920,149.365 89.331,150.977 89.562 L 153.906 89.981 153.906 104.756 L 153.906 119.531 125.195 119.537 C 92.160 119.544,88.831 119.897,79.688 124.362 C 68.052 130.043,59.727 140.683,57.181 153.125 C 53.669 170.294,31.831 358.536,32.675 364.369 C 35.049 380.776,47.355 394.599,63.384 398.865 C 69.668 400.538,330.332 400.538,336.616 398.865 C 352.645 394.599,364.951 380.776,367.325 364.369 C 368.169 358.536,346.331 170.294,342.819 153.125 C 340.273 140.683,331.948 130.043,320.313 124.362 C 311.169 119.897,307.840 119.544,274.805 119.537 L 246.094 119.531 246.094 104.756 L 246.094 89.981 249.023 89.562 C 250.635 89.331,254.063 88.920,256.641 88.649 C 300.838 84.001,345.905 56.925,367.830 21.848 C 373.245 13.185,372.585 5.623,366.063 1.592 C 361.987 -0.927,37.770 -0.897,33.836 1.623 M331.217 27.798 C 313.422 46.085,285.097 59.428,253.906 64.215 C 244.448 65.667,155.552 65.667,146.094 64.215 C 114.903 59.428,86.578 46.085,68.783 27.798 L 65.300 24.219 200.000 24.219 L 334.700 24.219 331.217 27.798 M221.094 104.688 L 221.094 119.531 200.000 119.531 L 178.906 119.531 178.906 104.688 L 178.906 89.844 200.000 89.844 L 221.094 89.844 221.094 104.688 M308.033 145.585 C 311.709 147.125,315.481 150.561,317.204 153.938 C 318.729 156.927,342.993 349.715,342.952 358.507 C 342.918 365.488,337.226 373.137,330.719 374.944 C 326.540 376.104,73.460 376.104,69.281 374.944 C 62.774 373.137,57.082 365.488,57.048 358.507 C 56.995 347.243,81.344 156.617,83.252 153.361 C 85.259 149.938,88.859 146.738,92.211 145.400 C 95.484 144.094,304.902 144.273,308.033 145.585 M191.006 162.476 C 123.772 168.549,82.548 240.519,111.382 301.485 C 147.021 376.837,255.270 376.171,289.220 300.391 C 319.890 231.930,265.629 155.736,191.006 162.476 M218.124 188.939 C 276.626 204.520,292.714 279.779,245.555 317.255 C 198.957 354.285,130.047 322.961,126.816 263.281 C 124.204 215.033,171.503 176.522,218.124 188.939 M195.313 248.520 C 192.947 249.445,162.075 279.991,160.495 282.969 C 155.220 292.909,165.568 304.015,176.316 299.949 C 180.042 298.540,209.943 268.190,211.422 264.316 C 215.197 254.432,205.216 244.644,195.313 248.520 " />
</svg>