<svg viewBox="0, 0, 400,400" xmlns="http://www.w3.org/2000/svg">
  <path d="M143.157 14.058 C 135.449 18.758,135.449 31.242,143.157 35.942 C 147.139 38.369,252.861 38.369,256.843 35.942 C 264.551 31.242,264.551 18.758,256.843 14.058 C 252.861 11.631,147.139 11.631,143.157 14.058 M30.657 64.058 C 22.949 68.758,22.949 81.242,30.657 85.942 C 32.958 87.345,34.613 87.494,47.852 87.497 L 62.500 87.500 62.500 218.976 C 62.500 334.514,62.645 351.010,63.696 355.046 C 67.457 369.483,80.517 382.543,94.954 386.304 C 101.893 388.111,298.107 388.111,305.046 386.304 C 319.483 382.543,332.543 369.483,336.304 355.046 C 337.355 351.010,337.500 334.514,337.500 218.976 L 337.500 87.500 352.148 87.497 C 365.387 87.494,367.042 87.345,369.343 85.942 C 377.051 81.242,377.051 68.758,369.343 64.058 C 365.330 61.611,34.670 61.611,30.657 64.058 M312.320 217.383 C 312.081 364.650,312.738 350.790,305.696 357.132 C 299.833 362.413,306.275 362.109,200.000 362.109 C 93.725 362.109,100.167 362.413,94.304 357.132 C 87.262 350.790,87.919 364.650,87.680 217.383 L 87.469 87.500 200.000 87.500 L 312.531 87.500 312.320 217.383 M151.525 139.260 C 145.239 143.497,145.703 136.658,145.703 225.000 C 145.703 302.797,145.718 303.541,147.308 306.247 C 152.163 314.511,164.656 314.846,169.535 306.843 C 171.972 302.846,171.972 147.154,169.535 143.157 C 166.065 137.465,157.075 135.520,151.525 139.260 M234.563 139.058 C 228.467 142.775,228.912 136.005,228.912 225.000 C 228.912 302.751,228.942 304.347,230.465 306.843 C 235.344 314.846,247.837 314.511,252.692 306.247 C 255.219 301.946,255.219 148.054,252.692 143.753 C 249.125 137.680,240.490 135.444,234.563 139.058 " />
</svg>