<svg viewBox="0, 0, 400,400" xmlns="http://www.w3.org/2000/svg" >
  <path d="M163.281 1.234 C 151.509 4.331,138.801 14.577,133.647 25.125 L 131.105 30.328 97.779 30.664 C 61.151 31.033,60.329 31.128,50.027 36.150 C 42.921 39.615,33.313 49.296,29.851 56.481 C 24.628 67.321,24.959 55.923,25.185 217.246 L 25.391 363.672 27.213 368.533 C 32.281 382.053,43.830 393.130,57.801 397.872 C 63.056 399.655,199.369 401.170,199.136 399.442 C 199.090 399.105,191.748 391.885,182.819 383.398 L 166.585 367.969 117.863 367.952 C 63.311 367.932,65.569 368.155,60.410 362.279 C 56.083 357.350,56.208 362.070,56.433 212.891 L 56.641 74.609 58.391 71.334 C 62.290 64.041,66.760 62.510,84.180 62.504 L 96.875 62.500 96.875 93.359 L 96.875 124.219 175.391 124.219 L 253.906 124.219 253.906 93.285 L 253.906 62.351 268.164 62.637 C 283.609 62.948,285.022 63.288,289.216 67.704 C 294.003 72.743,293.750 67.390,293.750 163.712 C 293.750 212.101,294.050 251.576,294.418 251.432 C 294.785 251.289,302.002 243.462,310.456 234.039 L 325.826 216.906 325.608 142.633 L 325.391 68.359 323.152 62.500 C 318.511 50.355,309.902 40.644,299.428 35.740 C 289.530 31.105,289.113 31.059,253.125 30.641 L 219.922 30.256 217.189 24.698 C 208.081 6.172,184.130 -4.253,163.281 1.234 M183.533 34.254 C 189.271 37.699,190.625 41.251,190.625 52.857 L 190.625 62.500 206.250 62.500 L 221.875 62.500 221.875 77.344 L 221.875 92.188 175.391 92.188 L 128.906 92.188 128.906 77.344 L 128.906 62.500 144.531 62.500 L 160.156 62.500 160.161 54.102 C 160.170 35.239,170.526 26.445,183.533 34.254 M96.875 186.328 L 96.875 202.344 112.891 202.344 L 128.906 202.344 128.906 186.328 L 128.906 170.313 112.891 170.313 L 96.875 170.313 96.875 186.328 M159.375 186.328 L 159.375 202.344 206.641 202.344 L 253.906 202.344 253.906 186.328 L 253.906 170.313 206.641 170.313 L 159.375 170.313 159.375 186.328 M96.875 248.828 L 96.875 264.844 112.891 264.844 L 128.906 264.844 128.906 248.828 L 128.906 232.813 112.891 232.813 L 96.875 232.813 96.875 248.828 M159.375 248.828 L 159.375 264.844 206.641 264.844 L 253.906 264.844 253.906 248.828 L 253.906 232.813 206.641 232.813 L 159.375 232.813 159.375 248.828 M296.875 294.190 C 267.441 327.031,243.078 353.903,242.734 353.904 C 242.389 353.905,228.736 341.162,212.392 325.586 C 196.048 310.010,182.246 297.266,181.722 297.266 C 180.470 297.266,160.136 318.548,160.224 319.766 C 160.298 320.788,242.783 399.336,244.272 399.802 C 245.128 400.070,374.609 256.655,374.609 255.440 C 374.609 254.597,352.077 234.418,351.172 234.450 C 350.742 234.465,326.309 261.348,296.875 294.190 " />
</svg>